<?xml version="1.0" encoding="UTF-8"?>
<svg xmlns="http://www.w3.org/2000/svg" viewBox="0 0 900 562" width="900" height="562" role="img" aria-label="Шефы и мастера">
  <defs>
    <linearGradient id="c1-bg" x1="0%" y1="0%" x2="100%" y2="100%">
      <stop offset="0%" stop-color="#3a2418"/>
      <stop offset="60%" stop-color="#1c1109"/>
      <stop offset="100%" stop-color="#0a0604"/>
    </linearGradient>
    <linearGradient id="c1-gold" x1="0%" y1="0%" x2="100%" y2="100%">
      <stop offset="0%" stop-color="#F0CE8E"/>
      <stop offset="100%" stop-color="#A07636"/>
    </linearGradient>
    <radialGradient id="c1-spot" cx="50%" cy="38%" r="50%">
      <stop offset="0%" stop-color="#E6C485" stop-opacity="0.22"/>
      <stop offset="100%" stop-opacity="0"/>
    </radialGradient>
  </defs>
  <rect width="900" height="562" fill="url(#c1-bg)"/>
  <rect width="900" height="562" fill="url(#c1-spot)"/>
  <!-- Chef's toque silhouette -->
  <g transform="translate(450 220)" fill="url(#c1-gold)" opacity="0.9">
    <path d="M-95 60 Q-95 -10 -55 -25 Q-65 -75 -15 -78 Q0 -110 30 -85 Q70 -100 75 -55 Q120 -50 110 10 Q120 50 95 60 Z"/>
    <rect x="-95" y="60" width="190" height="48" fill="#2a1a0e"/>
    <rect x="-95" y="60" width="190" height="48" fill="none" stroke="url(#c1-gold)" stroke-width="1"/>
  </g>
  <!-- Decorative whisks -->
  <g stroke="url(#c1-gold)" stroke-width="1.5" fill="none" opacity="0.55">
    <g transform="translate(150 380) rotate(-22)">
      <line x1="0" y1="-60" x2="0" y2="0"/>
      <ellipse cx="0" cy="20" rx="22" ry="36"/>
      <path d="M-22 10 Q-10 30 -22 50"/>
      <path d="M22 10 Q10 30 22 50"/>
    </g>
    <g transform="translate(750 380) rotate(22)">
      <line x1="0" y1="-60" x2="0" y2="0"/>
      <ellipse cx="0" cy="20" rx="22" ry="36"/>
      <path d="M-22 10 Q-10 30 -22 50"/>
      <path d="M22 10 Q10 30 22 50"/>
    </g>
  </g>
  <!-- Frame -->
  <rect x="36" y="36" width="828" height="490" fill="none" stroke="url(#c1-gold)" stroke-width="0.6" opacity="0.45"/>
  <text x="450" y="490" text-anchor="middle" font-family="ui-monospace, 'SF Mono', monospace" font-size="11" letter-spacing="6" fill="url(#c1-gold)" opacity="0.85">CHEFS • MAÎTRES</text>
</svg>
